<svg width="1280" height="913" viewBox="0 0 454 324" version="1.1" xmlns="http://www.w3.org/2000/svg" xmlns:xlink="http://www.w3.org/1999/xlink" xml:space="preserve" xmlns:serif="http://www.serif.com/" style="fill-rule:evenodd;clip-rule:evenodd;stroke-linejoin:round;stroke-miterlimit:2;">
    <g transform="matrix(1,0,0,1,-229.717,-120.726)">
        <g transform="matrix(-0.118269,0.441386,-0.441386,-0.118269,697.535,24.1025)">
            <path d="M475.138,243.745C516.44,204.089 531.807,144.508 514.838,89.822C509.648,72.725 506.802,54.591 506.802,35.796C506.802,-64.972 588.613,-146.782 689.381,-146.782C790.149,-146.782 871.959,-64.972 871.959,35.796C871.959,46.284 871.073,56.566 869.372,66.572C859.7,123.154 882.871,180.338 929.202,214.226C1017.19,278.633 1074.3,382.7 1074.3,500C1074.3,695.61 915.486,854.42 719.876,854.42C524.267,854.42 365.456,695.61 365.456,500C365.456,399.271 407.569,308.3 475.138,243.745Z" style="fill:url(#_Linear1);"/>
        </g>
    </g>
    <defs>
        <linearGradient id="_Linear1" x1="0" y1="0" x2="1" y2="0" gradientUnits="userSpaceOnUse" gradientTransform="matrix(410.388,168.085,-168.085,410.388,467.443,164.692)"><stop offset="0" style="stop-color:rgb(39,49,64);stop-opacity:1"/><stop offset="1" style="stop-color:rgb(26,32,44);stop-opacity:1"/></linearGradient>
    </defs>
</svg>